<?xml version="1.0" standalone="no"?>
<!DOCTYPE svg PUBLIC "-//W3C//DTD SVG 20010904//EN"
 "http://www.w3.org/TR/2001/REC-SVG-20010904/DTD/svg10.dtd">
<svg version="1.0" xmlns="http://www.w3.org/2000/svg"
 width="512.000000pt" height="512.000000pt" viewBox="0 0 512.000000 512.000000"
 preserveAspectRatio="xMidYMid meet">
<metadata>
Created by potrace 1.14, written by Peter Selinger 2001-2017
</metadata>
<g transform="translate(0.000000,512.000000) scale(0.100000,-0.100000)"
fill="#000000" stroke="none">
<path d="M510 3912 l0 -58 43 -2 c106 -6 188 -25 213 -49 48 -49 48 -32 49
-917 1 -456 -3 -857 -8 -890 -14 -96 -45 -127 -140 -141 -42 -7 -67 -9 -139
-14 -15 -1 -18 -11 -18 -59 l0 -57 510 0 c503 0 510 0 511 20 1 28 -2 89 -6
93 -1 2 -38 5 -81 8 -205 13 -260 48 -278 175 -6 46 -10 769 -3 775 5 5 524 4
577 -1 101 -10 160 -40 189 -95 22 -43 47 -148 50 -212 1 -16 12 -18 76 -18
l75 0 0 400 0 400 -74 0 -74 0 -7 -52 c-25 -184 -59 -240 -161 -264 -16 -4
-170 -9 -341 -11 l-313 -5 0 59 c-1 147 -1 562 0 691 l0 143 368 -2 c332 -1
375 -3 447 -21 104 -26 165 -71 206 -150 22 -43 69 -208 69 -241 0 -11 20 -14
83 -13 l82 1 -1 40 c-1 34 -10 219 -19 400 -2 28 -4 67 -4 88 l-1 37 -940 0
-940 0 0 -58z"/>
<path d="M2669 3963 c-4 -32 -4 -95 1 -102 3 -4 41 -11 85 -14 91 -7 140 -21
172 -49 44 -41 46 -77 47 -890 1 -845 -1 -925 -28 -981 -27 -56 -69 -72 -210
-82 -32 -2 -62 -8 -65 -14 -6 -8 -7 -78 -2 -101 1 -3 277 -5 614 -4 439 0 635
4 692 13 247 39 425 154 510 328 79 162 78 397 -1 544 -91 166 -312 261 -639
274 -96 4 -99 5 -91 12 4 4 19 8 34 8 413 17 652 161 697 419 32 186 -14 356
-124 459 -101 95 -223 143 -446 176 -74 11 -1245 15 -1246 4z m1131 -149 c211
-48 321 -187 322 -409 1 -244 -124 -378 -396 -423 -22 -4 -124 -7 -226 -7
l-184 0 -1 420 c0 231 1 424 3 428 7 14 412 7 482 -9z m-170 -1018 c413 -28
538 -135 538 -460 0 -124 -9 -171 -49 -254 -39 -79 -107 -147 -184 -183 -87
-41 -135 -49 -270 -46 -107 3 -127 6 -183 32 -91 41 -142 106 -159 202 -6 39
-11 676 -5 704 3 13 20 15 110 13 59 -1 150 -5 202 -8z"/>
<path d="M377 1312 c-14 -3 -17 -16 -17 -83 0 -68 2 -79 18 -80 22 0 4341 0
4365 0 15 1 17 12 17 84 l0 82 -2183 0 c-1201 0 -2191 -1 -2200 -3z"/>
</g>
</svg>
