<?xml version="1.0" standalone="no"?>
<!DOCTYPE svg PUBLIC "-//W3C//DTD SVG 20010904//EN"
 "http://www.w3.org/TR/2001/REC-SVG-20010904/DTD/svg10.dtd">
<svg version="1.0" xmlns="http://www.w3.org/2000/svg"
 width="512.000000pt" height="512.000000pt" viewBox="0 0 512.000000 512.000000"
 preserveAspectRatio="xMidYMid meet">
<metadata>
Created by potrace 1.14, written by Peter Selinger 2001-2017
</metadata>
<g transform="translate(0.000000,512.000000) scale(0.100000,-0.100000)"
fill="#000000" stroke="none">
<path d="M560 2560 l0 -990 355 0 c277 0 355 3 356 13 0 6 1 245 1 529 0 285
4 516 8 513 4 -3 45 -71 91 -152 46 -81 96 -168 110 -193 147 -253 216 -372
237 -410 14 -25 58 -102 99 -172 l75 -128 413 0 413 0 -97 169 c-54 93 -101
175 -105 182 -3 8 -14 28 -25 44 -15 26 -129 220 -190 327 -60 105 -428 739
-448 773 -13 22 -29 52 -36 68 -6 15 -15 27 -19 27 -4 0 -122 -115 -262 -255
-141 -140 -258 -255 -260 -255 -2 0 -3 203 -2 450 l1 450 -357 0 -358 0 0
-990z"/>
<path d="M2197 3518 c10 -18 21 -34 26 -36 4 -2 7 -8 7 -13 0 -5 27 -54 60
-110 33 -55 60 -102 60 -104 0 -2 32 -56 70 -121 39 -64 70 -118 70 -120 0 -2
22 -41 49 -86 27 -46 90 -155 141 -243 51 -88 101 -175 111 -192 11 -18 29
-50 40 -70 12 -21 50 -86 85 -146 35 -59 64 -109 64 -112 0 -6 121 -205 125
-205 8 0 515 513 515 521 0 4 -22 46 -49 91 -27 46 -58 99 -69 118 -10 19 -63
112 -117 205 -54 94 -106 185 -117 203 -10 17 -26 47 -37 65 -10 17 -65 112
-121 210 l-102 177 -414 0 -415 0 18 -32z"/>
<path d="M3849 3528 c-1 -29 0 -1940 0 -1950 1 -5 161 -8 356 -8 l355 0 0 990
0 990 -355 0 -355 0 -1 -22z"/>
</g>
</svg>
